<?xml version="1.0" standalone="no"?>
<!DOCTYPE svg PUBLIC "-//W3C//DTD SVG 20010904//EN"
 "http://www.w3.org/TR/2001/REC-SVG-20010904/DTD/svg10.dtd">
<svg version="1.0" xmlns="http://www.w3.org/2000/svg"
 width="500.000000pt" height="500.000000pt" viewBox="0 0 500.000000 500.000000"
 preserveAspectRatio="xMidYMid meet">

<g transform="translate(0.000000,500.000000) scale(0.100000,-0.100000)"
fill="#000000" stroke="none">
<path d="M2269 3849 c-398 -58 -745 -281 -967 -622 -28 -42 -52 -82 -54 -87
-2 -6 -68 -15 -148 -21 -172 -12 -323 -40 -403 -76 -66 -30 -117 -82 -117
-120 0 -42 45 -106 105 -152 84 -64 271 -154 302 -146 13 3 23 11 21 18 -3 7
-57 40 -123 74 -234 124 -285 205 -168 270 69 39 300 83 433 83 55 0 61 -2 55
-17 -84 -203 -117 -359 -118 -563 -2 -302 75 -554 244 -801 71 -103 245 -275
349 -346 157 -106 342 -183 527 -220 124 -25 395 -24 518 1 491 101 896 460
1049 929 51 155 61 228 61 430 0 103 3 187 8 187 16 0 197 -75 277 -115 324
-163 290 -279 -98 -334 -105 -14 -117 -18 -117 -36 0 -19 6 -20 85 -18 104 2
250 33 324 68 58 28 92 62 103 103 10 40 -30 106 -94 157 -67 53 -275 157
-411 206 -79 29 -94 38 -98 59 -39 184 -140 409 -248 551 -76 100 -209 229
-310 301 -94 67 -289 161 -401 193 -49 14 -133 33 -185 40 -102 16 -309 18
-401 4z m191 -24 c0 -12 -14 -15 -64 -15 -35 0 -85 -3 -111 -7 -38 -5 -47 -3
-43 8 6 17 51 26 146 28 58 1 72 -2 72 -14z m213 0 c32 -13 18 -28 -20 -21
-21 3 -71 6 -110 6 -61 0 -73 3 -73 16 0 15 11 16 93 11 50 -2 100 -8 110 -12z
m-448 -14 c-11 -11 -207 -53 -214 -46 -2 3 0 5 5 5 5 1 45 12 89 25 84 25 136
32 120 16z m620 -22 c37 -11 65 -22 63 -24 -7 -7 -191 34 -202 45 -15 17 49 7
139 -21z m-385 -49 c0 -40 -4 -62 -12 -65 -7 -2 -75 -6 -150 -8 l-136 -5 14
41 c32 90 33 91 212 95 l72 2 0 -60z m255 33 c16 -21 49 -103 44 -108 -2 -2
-67 0 -144 3 l-140 7 -3 64 -3 64 116 -6 c97 -4 119 -9 130 -24z m-539 -45
c-30 -75 -30 -75 -89 -82 -29 -4 -86 -16 -127 -26 -41 -11 -76 -18 -77 -16 -8
7 89 127 110 137 24 10 149 37 183 38 l22 1 -22 -52z m634 43 c19 -5 52 -12
72 -15 21 -4 52 -19 69 -34 32 -27 89 -99 89 -113 0 -4 -24 -1 -53 7 -29 7
-87 19 -130 27 l-78 13 -25 59 c-13 33 -24 61 -24 63 0 5 47 1 80 -7z m-874
-63 c-9 -13 -31 -44 -48 -70 -21 -33 -39 -49 -61 -54 -17 -3 -63 -19 -101 -35
-84 -34 -95 -36 -71 -9 10 11 16 23 12 26 -3 3 -16 -9 -28 -28 -20 -30 -126
-104 -136 -95 -6 7 146 132 161 132 7 0 32 17 54 37 41 37 114 79 182 104 50
18 55 17 36 -8z m1153 -21 c57 -23 88 -44 133 -89 58 -60 73 -86 41 -73 -10 4
-58 22 -107 40 -66 24 -94 40 -109 61 -11 16 -33 46 -50 68 -29 37 -29 38 -6
31 13 -4 57 -21 98 -38z m-629 -61 l0 -34 -87 -6 c-49 -4 -121 -9 -160 -12
l-73 -6 5 33 6 34 -13 -34 -13 -35 -140 -27 c-77 -15 -141 -26 -143 -25 -1 2
5 19 14 38 16 34 20 36 116 58 147 33 259 48 381 49 l107 1 0 -34z m307 8 c7
-10 13 -29 13 -42 0 -24 -1 -24 -67 -18 -38 3 -107 9 -155 12 l-88 6 0 36 0
35 142 -5 c122 -5 143 -8 155 -24z m190 -25 c95 -21 101 -25 121 -73 12 -28
12 -28 -15 -22 -15 4 -81 17 -145 29 -64 12 -119 25 -121 27 -2 3 -7 20 -11
39 l-6 34 42 -7 c24 -3 84 -16 135 -27z m412 -115 l56 -54 -56 30 c-36 19 -67
46 -89 77 l-35 48 34 -24 c18 -13 59 -48 90 -77z m-1519 81 c0 -3 -6 -20 -14
-39 -12 -28 -24 -36 -92 -61 -44 -15 -96 -36 -116 -47 -21 -10 -40 -18 -43
-18 -3 0 4 18 15 40 22 43 46 59 160 101 79 29 90 32 90 24z m610 -53 l0 -59
-137 -8 c-76 -5 -155 -9 -175 -9 -21 -1 -38 -4 -38 -7 0 -4 -24 -9 -52 -13
-29 -4 -90 -16 -136 -26 -125 -30 -123 -30 -107 31 8 29 18 55 22 59 19 18
263 66 287 57 8 -3 16 -2 18 4 3 8 155 23 281 28 l37 1 0 -58z m247 42 c40 -3
75 -10 78 -15 3 -5 9 -32 12 -60 l6 -52 -44 6 c-24 4 -99 10 -166 13 l-123 7
0 59 0 59 83 -6 c45 -3 115 -8 154 -11z m506 -32 c78 -32 91 -41 108 -74 10
-20 19 -39 19 -42 0 -3 -24 5 -52 18 -29 13 -83 33 -119 45 -61 20 -68 25 -82
61 l-15 40 26 -6 c15 -4 67 -23 115 -42z m-297 3 c43 -8 102 -22 130 -30 49
-14 52 -17 63 -59 19 -78 22 -76 -83 -50 -52 12 -120 26 -151 29 -61 8 -60 7
-70 78 -7 56 -9 55 111 32z m384 -117 c52 -23 56 -28 72 -78 10 -30 15 -56 13
-58 -2 -3 -27 5 -56 17 -28 12 -53 21 -55 19 -2 -2 25 -16 60 -32 56 -24 65
-31 70 -60 10 -51 25 -230 21 -235 -3 -2 -51 14 -107 37 -57 22 -115 44 -129
47 -26 6 -26 9 -33 115 -3 60 -9 123 -12 139 l-6 31 57 -20 c32 -11 60 -18 62
-16 2 2 -20 12 -49 21 -66 22 -74 28 -81 64 -3 16 -9 40 -13 55 l-6 26 68 -24
c38 -13 94 -35 124 -48z m-1718 21 c-11 -30 -26 -46 -56 -61 -54 -27 -117 -70
-112 -75 2 -2 32 14 67 36 35 22 65 39 67 37 2 -2 -4 -28 -13 -58 -13 -47 -21
-58 -58 -78 -23 -13 -63 -38 -90 -56 -26 -19 -49 -34 -52 -34 -8 0 45 113 62
132 9 10 13 18 9 18 -4 0 3 18 16 41 15 27 47 57 96 90 41 27 75 49 77 49 2 0
-4 -18 -13 -41z m222 -9 c-17 -65 -18 -67 -56 -75 -17 -4 -69 -23 -116 -41
-47 -19 -87 -33 -89 -30 -3 3 3 28 12 56 19 56 30 65 155 111 108 40 110 40
94 -21z m1664 -44 c23 -20 58 -76 48 -76 -3 0 -33 18 -67 40 -34 22 -66 40
-70 40 -8 0 -49 72 -49 85 0 8 110 -62 138 -89z m-1008 -71 c0 -158 21 -141
-180 -149 -75 -3 -143 -8 -153 -12 -15 -5 -17 3 -19 82 l-2 89 -3 -86 -4 -86
-102 -18 c-56 -10 -128 -20 -159 -23 l-58 -4 1 69 c1 76 12 169 22 179 9 9
186 51 251 59 l55 7 4 -38 4 -39 1 42 2 41 78 7 c42 3 84 8 92 9 8 2 50 4 93
5 l77 1 0 -135z m305 117 l40 -7 6 -85 5 -85 2 84 2 84 43 -6 c63 -9 243 -48
255 -56 12 -7 32 -153 32 -230 0 -40 -2 -43 -22 -38 -79 19 -271 58 -313 63
-27 3 -115 9 -195 12 l-145 7 -3 139 -3 139 128 -7 c70 -4 146 -11 168 -14z
m716 -118 c56 -37 70 -52 88 -95 28 -69 27 -74 -11 -45 -18 13 -61 40 -94 60
-54 31 -63 41 -73 78 -7 24 -15 49 -18 56 -7 18 18 5 108 -54z m-1702 -16 c-4
-29 -8 -81 -8 -115 l-1 -63 -92 0 c-115 0 -168 8 -168 26 0 7 5 35 11 63 10
48 12 50 72 75 71 30 167 64 183 65 7 1 8 -16 3 -51z m-399 -7 c-5 -11 -15
-23 -22 -27 -7 -5 -8 -2 -3 7 21 37 44 55 25 20z m2193 -31 c-6 -6 -33 30 -33
43 0 5 9 -1 19 -14 11 -13 17 -26 14 -29z m-27 -93 l61 -44 16 -79 c19 -93 32
-194 24 -194 -3 0 -42 25 -87 55 -45 30 -91 57 -101 60 -10 4 -19 14 -19 23 0
30 -20 206 -26 235 l-6 28 39 -19 c21 -11 65 -40 99 -65z m-2036 56 c0 -10 -3
-35 -6 -55 l-7 -38 -80 0 c-93 0 -93 2 11 67 77 48 82 49 82 26z m-178 -46
c-13 -37 -22 -47 -39 -47 -13 0 -23 4 -23 8 0 10 71 94 76 90 2 -2 -5 -25 -14
-51z m2340 -72 l30 -60 -42 40 c-39 37 -81 110 -80 138 1 21 61 -56 92 -118z
m-1212 -4 l0 -60 -32 5 c-18 3 -96 13 -173 23 -130 16 -140 19 -143 39 -2 13
3 25 11 28 13 5 193 18 300 23 l37 1 0 -59z m315 38 c115 -13 244 -35 319 -56
l59 -16 -7 -71 c-4 -38 -8 -71 -9 -72 -1 -1 -73 11 -160 28 l-157 31 -2 36 -1
36 -4 -32 c-2 -18 -10 -33 -17 -33 -6 0 -79 11 -162 25 -82 14 -152 25 -156
25 -5 0 -8 27 -8 60 l0 61 108 -6 c59 -3 148 -11 197 -16z m-675 -29 c0 -23
-6 -23 -101 -13 l-64 7 50 12 c81 19 115 18 115 -6z m1617 -118 c33 -55 63
-153 63 -204 0 -36 -2 -39 -22 -33 -38 12 -98 76 -98 105 0 35 -26 200 -35
225 -13 32 63 -43 92 -93z m-2433 11 c-7 -37 -14 -90 -14 -118 -1 -47 -5 -54
-65 -120 -63 -67 -65 -68 -65 -40 1 57 18 151 39 206 21 56 96 153 110 144 5
-2 2 -35 -5 -72z m206 25 l0 -53 -56 -29 c-30 -16 -75 -45 -100 -63 -25 -19
-48 -32 -52 -29 -6 7 13 182 24 210 5 13 22 16 95 16 l89 0 0 -52z m203 39 c8
-2 -175 -77 -187 -77 -8 0 -8 75 0 82 4 5 163 0 187 -5z m-443 -1 c0 -3 -4 -8
-10 -11 -5 -3 -10 -1 -10 4 0 6 5 11 10 11 6 0 10 -2 10 -4z m523 -108 c4 -57
10 -126 13 -154 l6 -52 -68 -22 c-38 -12 -95 -34 -127 -48 -31 -14 -60 -22
-63 -19 -8 8 -34 200 -34 254 0 33 5 45 21 54 29 15 221 88 235 89 7 0 13 -38
17 -102z m167 91 c74 -6 142 -13 150 -16 8 -3 22 -5 32 -4 14 2 208 -21 301
-35 l37 -6 0 -74 0 -74 -72 0 c-102 0 -321 -27 -462 -56 -65 -14 -119 -24
-121 -22 -5 5 -25 207 -25 253 0 29 4 45 13 45 6 0 73 -5 147 -11z m1370 -40
c57 -22 108 -43 112 -47 4 -4 5 -30 2 -58 l-6 -51 -127 30 c-69 16 -129 32
-133 36 -4 4 -5 37 -1 74 7 78 -10 76 153 16z m-660 -49 c161 -27 160 -26 161
-58 l2 -27 4 28 c2 15 9 27 14 27 5 0 73 -13 151 -30 77 -16 143 -30 145 -30
5 0 3 -64 -4 -88 -5 -20 -10 -23 -32 -18 -21 5 -269 55 -278 56 -2 0 -4 8 -4
18 -1 15 -2 15 -6 -2 -4 -15 -11 -17 -41 -12 -21 3 -94 9 -164 12 l-128 7 0
73 0 74 28 -5 c15 -3 83 -14 152 -25z m-1156 -97 c4 -49 11 -115 17 -148 10
-54 9 -61 -8 -73 -66 -46 -187 -122 -189 -119 -9 8 -34 187 -34 237 0 55 2 60
38 88 39 31 153 102 163 102 3 0 9 -39 13 -87z m2008 56 c83 -49 148 -99 148
-115 0 -8 -1 -14 -3 -14 -9 0 -211 60 -215 64 -5 6 7 96 13 96 2 0 28 -14 57
-31z m-214 -88 c63 -16 116 -32 119 -35 9 -9 -8 -136 -18 -136 -5 0 -35 11
-67 24 -31 13 -88 33 -125 46 -61 20 -68 25 -63 44 3 11 6 36 6 54 0 40 2 40
148 3z m-828 -86 c0 -60 -4 -87 -12 -89 -7 -3 -79 -7 -160 -10 -146 -6 -147
-6 -151 16 -4 21 -4 21 -6 -3 -1 -24 -5 -26 -103 -43 -56 -10 -122 -24 -145
-31 -37 -11 -43 -11 -47 4 -7 22 -26 132 -26 146 0 13 58 29 199 54 113 21
108 23 114 -49 3 -42 4 -41 5 12 l2 57 53 5 c100 11 122 13 200 14 l77 2 0
-85z m293 69 c44 -6 47 -9 49 -38 l1 -31 4 32 c4 30 6 32 36 27 84 -15 263
-56 269 -62 3 -4 0 -43 -9 -88 l-15 -81 -71 18 c-40 10 -105 23 -144 29 l-73
12 -2 46 -1 47 -4 -43 -4 -42 -147 6 c-81 3 -153 7 -159 10 -9 2 -13 29 -13
90 l0 87 118 -6 c64 -4 138 -10 165 -13z m-1483 -61 c0 -26 7 -91 16 -145 l17
-98 -39 -42 c-22 -24 -49 -56 -60 -72 l-22 -30 -11 55 c-7 30 -17 91 -22 137
-10 76 -9 85 10 118 26 44 93 124 103 124 4 0 8 -21 8 -47z m2405 37 c3 -5 1
-10 -4 -10 -6 0 -11 5 -11 10 0 6 2 10 4 10 3 0 8 -4 11 -10z m-129 -26 c49
-14 92 -28 95 -32 8 -9 -20 -194 -30 -205 -5 -5 -29 7 -55 26 -25 20 -69 48
-97 63 l-51 28 7 66 c4 36 9 68 12 73 7 11 25 9 119 -19z m-1735 -109 l15 -85
-55 -16 c-31 -9 -84 -29 -120 -45 -35 -16 -67 -29 -71 -29 -8 0 -40 118 -40
149 0 12 11 23 33 31 72 28 212 79 218 79 3 1 12 -37 20 -84z m1466 33 c57
-22 105 -43 108 -48 7 -11 -24 -148 -35 -155 -4 -3 -32 6 -61 19 -30 13 -84
33 -121 45 -38 13 -68 23 -68 24 0 1 7 37 15 80 8 43 15 81 15 84 0 6 31 -4
147 -49z m-2157 -35 c-10 -16 -11 -15 -6 7 3 14 7 36 7 50 2 19 3 18 6 -7 2
-18 -1 -41 -7 -50z m2592 62 c53 -19 68 -44 68 -114 0 -55 -27 -212 -39 -224
-5 -4 -16 4 -26 19 -10 15 -35 46 -56 69 l-38 42 15 89 c23 130 24 134 27 134
2 0 24 -7 49 -15z m95 -57 c-3 -8 -6 -5 -6 6 -1 11 2 17 5 13 3 -3 4 -12 1
-19z m-1347 -93 c0 -52 -4 -77 -12 -80 -7 -2 -75 -6 -150 -8 -124 -5 -138 -4
-139 11 0 12 -3 10 -9 -5 -6 -15 -18 -23 -32 -23 -13 0 -66 -10 -118 -21 -52
-11 -101 -21 -109 -22 -16 -2 -56 133 -43 144 13 12 219 54 282 58 8 1 40 5
70 10 30 4 101 9 158 10 l102 1 0 -75z m243 69 l77 -7 2 -41 1 -41 4 39 4 38
42 -6 c23 -3 89 -16 146 -28 l103 -21 -6 -41 c-14 -87 -26 -117 -44 -112 -42
14 -200 46 -224 46 -25 0 -28 4 -30 38 -1 35 -1 35 -5 5 l-4 -31 -137 5 c-75
2 -143 6 -149 8 -9 3 -13 28 -13 80 l0 75 78 0 c44 0 113 -3 155 -6z m-1159
-85 c10 -45 16 -82 14 -84 -2 -1 -21 -12 -43 -23 -22 -11 -62 -36 -89 -56 -27
-19 -53 -33 -56 -31 -4 2 -17 37 -30 76 l-22 72 27 21 c46 35 159 105 171 105
6 1 18 -35 28 -80z m1904 62 c20 -10 65 -39 99 -65 l62 -45 -24 -72 c-14 -40
-27 -74 -29 -76 -2 -2 -32 16 -67 40 -35 25 -78 52 -96 61 l-31 16 13 52 c7
29 16 65 19 81 8 32 7 32 54 8z m-2307 -66 c0 -22 8 -74 17 -115 16 -72 16
-77 -3 -137 -11 -34 -23 -63 -26 -63 -20 0 -35 262 -19 329 14 60 29 53 31
-14z m2677 -66 c4 -104 -17 -308 -26 -264 -2 11 -13 46 -23 77 -17 53 -18 62
-4 120 8 35 17 94 21 131 10 103 28 68 32 -64z m-1982 54 c3 -16 10 -44 15
-63 12 -47 11 -70 -2 -70 -5 0 -58 -18 -116 -40 -59 -22 -107 -39 -108 -37 -4
5 -45 131 -45 138 0 10 210 95 242 98 4 1 10 -11 14 -26z m1441 -38 l72 -33
-21 -64 c-11 -35 -24 -67 -28 -71 -4 -4 -31 3 -61 16 -30 13 -79 32 -109 42
-30 9 -58 20 -62 24 -6 5 10 89 27 138 5 16 82 -6 182 -52z m-1941 -87 l23
-71 -55 -59 c-29 -33 -54 -64 -54 -71 0 -12 -2 -14 59 61 24 28 46 52 51 52 4
0 20 -29 35 -65 l28 -64 -34 -38 c-19 -21 -44 -51 -56 -68 l-22 -30 -44 95
c-65 139 -81 194 -66 221 16 31 101 121 107 114 3 -3 16 -37 28 -77z m2325 35
c20 -21 45 -51 56 -68 l21 -29 -26 -74 -26 -73 -21 28 c-11 15 -37 47 -58 70
l-39 42 23 70 c13 39 26 71 29 71 3 0 22 -17 41 -37z m-1201 -143 l0 -170 -33
0 c-19 0 -74 -3 -124 -6 l-90 -7 -16 89 c-15 83 -16 57 -1 -46 l6 -46 -88 -17
c-49 -9 -98 -20 -109 -23 -17 -4 -24 5 -48 73 -50 144 -77 247 -65 254 21 13
220 51 244 46 13 -2 24 -1 24 4 0 10 56 15 193 17 l107 2 0 -170z m248 164
c52 -7 52 -7 54 -43 l1 -36 4 33 c5 38 16 40 131 17 113 -23 142 -34 142 -53
0 -9 -22 -82 -49 -162 -52 -158 -43 -148 -126 -136 -38 6 -37 5 8 -8 27 -8 51
-17 54 -20 16 -16 -114 -296 -136 -295 -25 1 -129 24 -135 30 -3 3 1 29 9 59
8 30 14 62 14 70 0 8 -9 -16 -19 -53 -10 -38 -20 -70 -22 -73 -2 -2 -41 -1
-86 3 l-82 6 0 160 0 160 113 -8 c61 -3 115 -10 119 -13 4 -4 0 -38 -8 -76 -8
-38 -13 -74 -11 -80 2 -6 9 19 16 54 20 108 16 102 74 96 36 -4 44 -3 27 3
-14 5 -37 9 -52 10 -16 1 -28 6 -28 12 0 5 -5 7 -10 4 -6 -4 -62 -3 -125 1
l-115 7 0 168 0 169 93 0 c50 0 116 -3 145 -6z m-1117 -81 c21 -65 22 -67 3
-80 -32 -23 -157 -103 -159 -103 -8 0 -56 124 -52 135 7 15 156 115 173 115 7
0 22 -30 35 -67z m1846 30 c33 -21 73 -47 88 -59 l27 -20 -27 -65 c-15 -35
-28 -65 -30 -67 -4 -4 -180 109 -179 116 2 28 41 132 50 132 6 0 38 -17 71
-37z m-1542 -110 c14 -49 37 -119 50 -158 14 -38 25 -73 25 -77 0 -3 -15 -10
-32 -13 -18 -4 -61 -20 -95 -35 -46 -21 -64 -25 -71 -17 -19 24 -142 285 -142
302 0 3 13 9 135 54 44 16 85 30 92 30 6 1 23 -38 38 -86z m1292 47 c113 -44
110 -40 88 -97 -10 -26 -42 -96 -71 -154 l-53 -107 -83 34 c-46 19 -89 34 -95
34 -19 0 -17 9 27 142 22 66 42 136 46 155 6 32 9 34 35 29 15 -3 63 -19 106
-36z m-1977 -99 c22 -66 23 -70 7 -110 -10 -23 -17 -50 -17 -61 0 -36 -17 -21
-40 35 -17 42 -21 66 -16 98 8 54 26 107 35 107 4 0 17 -31 31 -69z m2440 -27
l29 -41 -30 -58 c-16 -32 -31 -60 -32 -61 -2 -2 -28 26 -60 61 l-57 63 31 67
30 67 31 -28 c16 -16 43 -47 58 -70z m126 -17 c4 -52 1 -70 -20 -112 -16 -33
-25 -43 -26 -30 0 11 -9 44 -19 73 -18 52 -18 55 1 105 10 29 21 59 24 67 10
27 34 -36 40 -103z m-2132 33 c10 -25 41 -92 69 -149 48 -98 50 -105 33 -115
-10 -6 -41 -26 -68 -44 -27 -18 -53 -30 -58 -27 -15 9 -100 138 -144 217 l-37
66 68 45 c119 78 110 77 137 7z m1749 11 c41 -27 78 -54 81 -60 4 -5 -4 -32
-18 -59 -28 -56 -144 -232 -153 -232 -3 0 -32 18 -64 39 -32 22 -63 41 -69 43
-7 2 9 43 38 98 27 52 60 123 73 158 13 34 27 62 30 62 4 0 40 -22 82 -49z
m-1929 -134 c28 -50 97 -157 132 -204 15 -21 14 -24 -27 -75 -24 -29 -45 -55
-47 -58 -5 -8 -82 84 -142 173 l-60 89 21 31 c25 37 80 97 88 97 4 0 19 -24
35 -53z m2085 6 c61 -71 61 -80 -1 -169 -29 -43 -73 -100 -98 -126 l-45 -49
-47 54 -46 53 55 80 c30 43 70 107 90 142 19 34 38 62 43 62 5 0 27 -21 49
-47z m-2273 -21 l30 -57 -21 -65 -22 -64 -32 54 c-33 57 -34 66 -10 152 5 21
13 38 17 38 4 0 21 -26 38 -58z m2440 -18 c8 -53 2 -76 -30 -129 -16 -26 -26
-35 -29 -25 -2 8 -11 37 -20 64 -16 49 -16 49 15 110 28 55 31 58 44 42 7 -10
16 -38 20 -62z m-1256 -124 l0 -160 -39 0 c-21 0 -59 -3 -84 -6 -43 -6 -48 -5
-57 17 l-10 24 3 -25 c2 -21 -3 -26 -33 -32 l-35 -7 37 3 c32 2 39 -2 48 -24
l10 -25 -5 26 c-4 25 -2 27 42 33 25 3 63 6 84 6 l39 0 0 -134 0 -134 -35 -4
c-21 -2 -40 1 -46 8 -6 7 -26 55 -44 106 -19 51 -34 86 -34 78 0 -8 15 -55 34
-105 19 -49 32 -91 29 -94 -2 -2 -23 -5 -46 -5 -41 -1 -43 1 -91 69 -47 68
-102 165 -95 169 2 2 19 8 38 14 l35 11 -42 -5 c-42 -6 -42 -5 -67 43 -36 72
-107 245 -102 250 6 6 176 43 196 43 13 0 21 -18 33 -67 15 -63 15 -52 1 39
l-6 37 63 4 c35 2 90 4 122 5 l57 2 0 -160z m-455 25 c12 -33 40 -99 62 -146
l40 -86 -65 -26 -65 -25 -18 21 c-33 39 -169 243 -169 254 0 13 149 73 174 70
12 -1 25 -21 41 -62z m1049 35 c97 -37 96 -32 17 -150 -38 -58 -83 -119 -98
-137 l-28 -32 -63 26 c-34 15 -61 32 -58 37 3 6 28 63 56 126 28 63 55 126 61
139 11 26 20 25 113 -9z m687 -3 c-10 -9 -11 -8 -5 6 3 10 9 15 12 12 3 -3 0
-11 -7 -18z m-2274 -198 l45 -49 -14 -57 -14 -57 -58 59 c-32 33 -79 86 -103
118 -42 54 -45 62 -40 102 4 23 12 54 18 68 12 26 12 26 67 -54 30 -44 75
-102 99 -130z m2168 149 c8 -28 15 -56 15 -61 0 -17 -59 -94 -131 -171 l-73
-78 -18 51 -17 52 59 71 c32 38 76 97 97 129 21 32 41 59 45 59 4 0 14 -23 23
-52z m-2365 -115 c-1 -25 -4 -21 -30 27 -16 30 -29 66 -29 80 -1 20 5 15 29
-27 17 -29 30 -65 30 -80z m2421 42 c-16 -36 -32 -65 -35 -65 -12 0 9 68 33
108 37 60 38 34 2 -43z m-1867 0 c26 -42 68 -102 92 -134 24 -32 44 -61 44
-64 0 -3 -20 -17 -45 -31 -34 -21 -49 -24 -64 -17 -20 11 -142 139 -191 201
l-30 38 62 40 c35 23 68 41 74 41 6 1 32 -33 58 -74z m1404 35 c34 -22 62 -43
62 -46 0 -19 -214 -244 -231 -244 -8 0 -37 17 -98 57 -2 1 15 23 37 50 22 26
65 87 97 136 31 48 60 87 64 87 4 0 36 -18 69 -40z m-1548 -122 c29 -35 81
-90 116 -123 l62 -60 -33 -39 -34 -38 -53 38 c-29 22 -88 70 -131 107 l-78 69
17 26 c20 33 65 82 74 82 4 0 31 -28 60 -62z m1665 30 c54 -64 53 -69 -15
-134 -34 -32 -91 -80 -128 -107 l-66 -48 -32 38 -32 37 109 115 c60 63 109
118 109 123 0 19 30 6 55 -24z m-1928 -129 c44 -45 73 -84 73 -97 0 -11 4 -32
10 -46 15 -41 -2 -31 -71 42 -80 82 -123 145 -138 197 -17 60 -13 64 22 20 17
-22 64 -74 104 -116z m2221 109 c-5 -24 -25 -68 -45 -98 -35 -53 -160 -186
-168 -179 -2 2 2 26 8 53 8 38 22 59 57 92 25 23 68 72 95 108 28 36 53 65 56
65 4 1 3 -18 -3 -41z m-1009 -44 c7 -6 -35 -145 -63 -207 -23 -52 -24 -53 -60
-49 l-36 4 0 135 0 135 78 -7 c42 -4 79 -9 81 -11z m147 -24 l23 -9 -34 -61
c-19 -34 -54 -89 -77 -122 -41 -59 -43 -60 -81 -55 -21 3 -41 8 -44 10 -2 3
12 48 31 101 20 52 36 100 36 105 0 5 4 21 9 34 9 24 12 24 61 15 29 -5 63
-13 76 -18z m-1186 -54 c32 -29 90 -77 129 -106 39 -29 71 -56 70 -59 0 -3 -6
-21 -12 -38 l-12 -33 -80 51 c-130 83 -185 129 -185 154 0 25 19 85 27 85 3 0
31 -24 63 -54z m1830 2 c13 -51 13 -52 -16 -75 -41 -34 -132 -97 -193 -132
-54 -32 -54 -32 -65 21 -6 24 1 33 71 86 43 33 101 80 128 105 28 25 53 46 57
47 3 0 12 -23 18 -52z m-1280 -5 c14 -26 48 -82 77 -124 l51 -77 -28 -12 c-27
-11 -32 -9 -82 34 -56 48 -173 175 -167 180 5 4 112 45 119 45 3 1 16 -20 30
-46z m734 26 c31 -12 56 -27 56 -32 0 -6 -47 -58 -104 -115 -90 -90 -107 -103
-128 -97 -38 12 -43 23 -21 47 24 27 84 121 113 177 11 23 22 41 24 41 2 0 29
-10 60 -21z m-724 -212 l50 -45 -26 -17 c-25 -16 -27 -15 -122 49 -53 36 -114
80 -136 99 l-39 33 49 31 48 32 63 -69 c35 -38 86 -89 113 -113z m850 151 c19
-13 35 -28 37 -34 4 -13 -146 -129 -218 -168 -41 -23 -47 -24 -67 -11 -20 15
-18 18 86 124 59 60 112 109 118 110 6 1 26 -9 44 -21z m-1419 -93 c40 -30 99
-68 130 -85 46 -24 58 -36 63 -62 3 -17 4 -33 2 -35 -6 -6 -121 52 -188 95
-42 27 -62 47 -73 75 -15 36 -19 67 -11 67 3 0 37 -25 77 -55z m1843 28 c-11
-46 -32 -80 -61 -101 -46 -32 -202 -114 -211 -110 -5 1 -5 17 0 34 6 24 22 40
70 68 35 20 92 59 128 86 36 26 68 49 73 49 4 1 4 -11 1 -26z m-1504 -18 c23
-19 81 -61 128 -92 48 -31 89 -58 91 -60 3 -2 -2 -10 -11 -19 -14 -14 -21 -13
-77 10 -75 30 -228 112 -237 127 -6 10 42 69 57 69 4 0 26 -16 49 -35z m1177
-2 l24 -31 -73 -43 c-112 -66 -227 -112 -244 -98 -21 17 -18 22 39 56 29 17
88 59 132 92 44 34 84 60 89 58 5 -2 20 -17 33 -34z m-1212 -90 c39 -22 105
-55 148 -73 80 -35 82 -37 68 -58 -6 -11 -17 -11 -52 -2 -110 28 -269 97 -269
116 0 22 20 65 27 61 5 -2 40 -22 78 -44z m1253 15 c6 -20 5 -38 0 -45 -11
-13 -188 -85 -256 -103 -23 -6 -47 -8 -52 -5 -25 15 -4 35 73 69 45 20 111 54
147 75 36 22 68 40 72 40 4 1 11 -14 16 -31z m-1617 5 c13 -16 12 -17 -3 -4
-10 7 -18 15 -18 17 0 8 8 3 21 -13z m1131 -34 c78 -25 144 -76 153 -118 32
-145 -306 -239 -550 -153 -69 24 -135 88 -135 131 0 102 161 175 365 167 67
-3 123 -12 167 -27z m-908 -89 c34 -13 58 -31 70 -50 13 -23 14 -30 4 -30 -7
0 6 -9 28 -19 23 -10 45 -24 49 -31 4 -6 -16 0 -44 15 -29 14 -50 29 -47 34 3
4 -20 18 -50 30 -63 27 -168 101 -183 130 -9 15 3 11 55 -19 37 -21 90 -48
118 -60z m1574 46 c-51 -48 -139 -100 -207 -121 l-24 -7 27 34 c15 21 42 40
65 48 21 7 72 32 113 56 40 24 75 43 78 43 3 0 -21 -24 -52 -53z m-1285 -82
c39 -11 67 -24 67 -31 0 -19 -40 -16 -152 13 -100 25 -158 48 -158 62 0 4 -3
17 -6 29 -6 20 -1 19 88 -17 51 -21 123 -46 161 -56z m1103 50 c-4 -14 -18
-29 -34 -35 -51 -20 -215 -59 -248 -59 -56 0 -30 26 44 45 37 9 105 33 152 54
47 20 87 33 88 28 2 -4 1 -19 -2 -33z m-1186 -79 c52 -13 111 -26 132 -30 20
-3 39 -13 42 -22 6 -14 -2 -15 -73 -10 -110 9 -171 25 -203 55 -32 29 -37 48
-10 37 9 -4 60 -17 112 -30z m1150 15 c-6 -11 -21 -27 -34 -35 -46 -30 -266
-59 -266 -36 0 15 10 19 116 40 55 11 117 27 139 35 54 20 57 19 45 -4z m30
-35 c0 -9 -101 -56 -110 -50 -4 3 -23 -4 -42 -14 -38 -23 -140 -37 -194 -27
-33 7 -35 8 -18 20 16 11 94 20 245 29 14 1 32 7 40 13 11 9 42 22 77 33 1 1
2 -1 2 -4z m-1080 -52 c52 -3 103 -12 114 -19 17 -12 15 -13 -19 -20 -54 -10
-149 3 -195 26 -44 22 -53 36 -17 26 12 -4 65 -9 117 -13z m177 -54 c22 -8 24
-12 13 -19 -22 -14 -121 -12 -161 3 l-34 12 65 6 c36 3 70 6 77 7 6 1 24 -3
40 -9z m617 0 l41 -1 -30 -13 c-31 -15 -141 -20 -170 -8 -33 12 25 34 74 28
24 -3 62 -5 85 -6z m-474 -35 c30 -3 88 -7 129 -7 54 -2 76 -6 79 -16 4 -12
-21 -13 -154 -7 -88 3 -175 9 -194 13 l-35 6 40 13 c22 7 49 10 60 8 11 -2 45
-7 75 -10z m320 2 l35 -13 -47 -8 c-51 -8 -98 -1 -98 15 0 7 27 15 65 18 6 0
26 -5 45 -12z"/>
<path d="M2122 3500 c0 -19 2 -27 5 -17 2 9 2 25 0 35 -3 9 -5 1 -5 -18z"/>
<path d="M2113 2895 c0 -38 2 -53 4 -32 2 20 2 52 0 70 -2 17 -4 1 -4 -38z"/>
<path d="M2142 2550 c0 -19 2 -27 5 -17 2 9 2 25 0 35 -3 9 -5 1 -5 -18z"/>
<path d="M2162 2390 c0 -19 2 -27 5 -17 2 9 2 25 0 35 -3 9 -5 1 -5 -18z"/>
<path d="M2172 2325 c0 -16 2 -22 5 -12 2 9 2 23 0 30 -3 6 -5 -1 -5 -18z"/>
<path d="M2752 2350 c0 -19 2 -27 5 -17 2 9 2 25 0 35 -3 9 -5 1 -5 -18z"/>
<path d="M2742 2285 c0 -16 2 -22 5 -12 2 9 2 23 0 30 -3 6 -5 -1 -5 -18z"/>
<path d="M2732 2225 c0 -16 2 -22 5 -12 2 9 2 23 0 30 -3 6 -5 -1 -5 -18z"/>
<path d="M2722 2165 c0 -16 2 -22 5 -12 2 9 2 23 0 30 -3 6 -5 -1 -5 -18z"/>
<path d="M2241 1950 c0 -8 6 -37 13 -65 8 -27 15 -43 15 -35 0 8 -6 38 -13 65
-8 28 -15 43 -15 35z"/>
<path d="M3887 3850 c-26 -79 -43 -113 -73 -149 -45 -52 -107 -95 -162 -112
-43 -12 -56 -29 -24 -29 33 -1 102 -39 151 -85 49 -46 101 -132 101 -167 0
-10 5 -18 10 -18 6 0 10 7 10 16 0 33 56 127 102 170 45 42 122 84 154 84 30
0 12 18 -29 30 -92 25 -191 128 -221 229 -8 26 -16 40 -19 31z"/>
<path d="M4200 3234 c-14 -21 -39 -45 -56 -53 l-30 -15 30 -21 c17 -11 40 -35
51 -52 11 -18 22 -32 25 -33 3 0 13 14 22 30 9 17 33 40 53 51 l36 22 -31 15
c-29 14 -62 51 -71 80 -3 8 -14 -1 -29 -24z"/>
</g>
</svg>
